# xmcd
#
# Track frame offsets:
#	150
#	18946
#	36276
#	55575
#	71471
#	84149
#	101201
#	119342
#	133841
#	146282
#	163032
#	183150
#	199383
#	214365
#	231114
#	244446
#	255210
#	268682
#	280194
#	290792
#
# Disc length: 4020 seconds
#
# Revision: 1
# Processed by: cddbd v1.5.2PL0 Copyright (c) Steve Scherf et al.
# Submitted via: EZCDAudioConverter 5.1.1.1
#
DISCID=2a0fb214
DTITLE=Compilation - Top 40 Country [Disc 2]
DYEAR=2014
DGENRE=Country
TTITLE0=Dolly Parton and Kenny Rogers - Islands In The Stream
TTITLE1=Dr Hook - Sylvia's Mother
TTITLE2=Brad Paisley - Then
TTITLE3=Andy Griggs - You Won't Ever Be Lonely
TTITLE4=Jake Owen - Barefoot Blue Jean Night
TTITLE5=Collin Raye - Someone You Used To Know
TTITLE6=Lonestar - Amazed
TTITLE7=Rednex - Cotton Eyed Joe
TTITLE8=Chris Young - You
TTITLE9=Gretchen Wilson - Redneck Woman
TTITLE10=Alan Jackson - Little Man
TTITLE11=Exile - Kiss You All Over
TTITLE12=Alabama - Love In The First Degree
TTITLE13=Restless Heart - When She Cries
TTITLE14=Charlie Rich - Behind Closed Doors
TTITLE15=Hank Locklin - Please Help Me I'm Falling
TTITLE16=Claude King - Wolverton Mountain
TTITLE17=Johnny Horton - Battle Of New Orleans
TTITLE18=The Statler Brothers - Flowers On The Wall
TTITLE19=Bobby Darin - If I Were A Carpenter
EXTD=
EXTT0=
EXTT1=
EXTT2=
EXTT3=
EXTT4=
EXTT5=
EXTT6=
EXTT7=
EXTT8=
EXTT9=
EXTT10=
EXTT11=
EXTT12=
EXTT13=
EXTT14=
EXTT15=
EXTT16=
EXTT17=
EXTT18=
EXTT19=
PLAYORDER=
